<?xml version="1.0" encoding="utf-8"?>
<!-- Generator: Adobe Illustrator 27.9.0, SVG Export Plug-In . SVG Version: 6.00 Build 0)  -->
<svg version="1.1" id="Pricing_plan" xmlns="http://www.w3.org/2000/svg" xmlns:xlink="http://www.w3.org/1999/xlink" x="0px"
	 y="0px" viewBox="0 0 376 162" style="enable-background:new 0 0 376 162;" xml:space="preserve">
<style type="text/css">
	.st0{fill-rule:evenodd;clip-rule:evenodd;fill:url(#BG_00000124881995526203793290000001893259838487644556_);}
	.st1{opacity:0.1;}
	.st2{clip-path:url(#SVGID_00000141427347947221482840000002101531067575671189_);}
</style>
<g id="_02">
	
		<linearGradient id="BG_00000089568621385665987410000006515104870876609963_" gradientUnits="userSpaceOnUse" x1="188" y1="0" x2="188" y2="167.1">
		<stop  offset="0" style="stop-color:#104B88"/>
		<stop  offset="1" style="stop-color:#1B2D59"/>
	</linearGradient>
	
		<path id="BG" style="fill-rule:evenodd;clip-rule:evenodd;fill:url(#BG_00000089568621385665987410000006515104870876609963_);" d="
		M0,0h376v167.1H249.1c-5,0-10-10.3-15-10.3s-10.1,10.3-15.2,10.3c-5,0-10-10.3-15-10.3c-4.9,0-9.9,10.3-14.8,10.3
		c-5,0-10.1-10.3-15.1-10.3c-5.1,0-10.2,10.3-15.2,10.3c-4.9,0-9.9-10.3-14.7-10.3c-5,0-10.1,10.3-15,10.3H0V0z"/>
</g>
<g class="st1">
	<g>
		<defs>
			<rect id="SVGID_1_" x="-103.6" y="-155.5" width="357.1" height="300"/>
		</defs>
		<clipPath id="SVGID_00000016045230350022675310000005124701361323217287_">
			<use xlink:href="#SVGID_1_"  style="overflow:visible;"/>
		</clipPath>
		<g style="clip-path:url(#SVGID_00000016045230350022675310000005124701361323217287_);">
			<defs>
				<rect id="SVGID_00000159450712602213390240000006737154623023092384_" x="-103.6" y="-155.5" width="357.1" height="300"/>
			</defs>
			<clipPath id="SVGID_00000003092849832728440660000006194578079100825492_">
				<use xlink:href="#SVGID_00000159450712602213390240000006737154623023092384_"  style="overflow:visible;"/>
			</clipPath>
			<g style="clip-path:url(#SVGID_00000003092849832728440660000006194578079100825492_);">
				
					<image style="overflow:visible;" width="744" height="625" xlink:href="791312B.png"  transform="matrix(0.48 0 0 0.48 -103.56 -155.5)">
				</image>
			</g>
		</g>
	</g>
</g>
</svg>
