<?xml version="1.0" encoding="utf-8"?>
<!-- Generator: Adobe Illustrator 27.9.0, SVG Export Plug-In . SVG Version: 6.00 Build 0)  -->
<svg version="1.1" id="Pricing_plan" xmlns="http://www.w3.org/2000/svg" xmlns:xlink="http://www.w3.org/1999/xlink" x="0px"
	 y="0px" viewBox="0 0 376 162" style="enable-background:new 0 0 376 162;" xml:space="preserve">
<style type="text/css">
	.st0{fill-rule:evenodd;clip-rule:evenodd;fill:url(#BG_00000069374981175168939200000014902886966118146204_);}
	.st1{opacity:0.1;}
	.st2{clip-path:url(#SVGID_00000021830897655559592100000003177441074924221117_);}
	.st3{clip-path:url(#SVGID_00000018928836541030005540000003652752865635465881_);}
</style>
<g id="_02">
	
		<linearGradient id="BG_00000032626165066572125780000011106620722820576954_" gradientUnits="userSpaceOnUse" x1="188" y1="1436" x2="188" y2="1603.1" gradientTransform="matrix(1 0 0 1 0 -1436)">
		<stop  offset="0" style="stop-color:#FCF8F3"/>
		<stop  offset="1" style="stop-color:#FCF8F3"/>
	</linearGradient>
	
		<path id="BG" style="fill-rule:evenodd;clip-rule:evenodd;fill:url(#BG_00000032626165066572125780000011106620722820576954_);" d="
		M0,0h376v167.1H249.1c-5,0-10-10.3-15-10.3s-10.1,10.3-15.2,10.3c-5,0-10-10.3-15-10.3c-4.9,0-9.9,10.3-14.8,10.3
		c-5,0-10.1-10.3-15.1-10.3c-5.1,0-10.2,10.3-15.2,10.3c-4.9,0-9.9-10.3-14.7-10.3c-5,0-10.1,10.3-15,10.3H0V0z"/>
</g>
<g class="st1">
	<g>
		<g>
			<g>
				<defs>
					<rect id="SVGID_1_" x="-103.6" y="-155.5" width="357.1" height="300"/>
				</defs>
				<clipPath id="SVGID_00000127039008060822324510000000287320946026885254_">
					<use xlink:href="#SVGID_1_"  style="overflow:visible;"/>
				</clipPath>
				<g style="clip-path:url(#SVGID_00000127039008060822324510000000287320946026885254_);">
					<g>
						<g>
							<defs>
								<rect id="SVGID_00000034780310790225044820000017156944681593320097_" x="-103.6" y="-155.5" width="357.1" height="300"/>
							</defs>
							<clipPath id="SVGID_00000063607640229094355060000011386742162895230886_">
								<use xlink:href="#SVGID_00000034780310790225044820000017156944681593320097_"  style="overflow:visible;"/>
							</clipPath>
							<g style="clip-path:url(#SVGID_00000063607640229094355060000011386742162895230886_);">
								
									<image style="overflow:visible;enable-background:new    ;" width="744" height="625" xlink:href="791312B.png"  transform="matrix(0.48 0 0 0.48 -103.56 -155.5)">
								</image>
							</g>
						</g>
					</g>
				</g>
			</g>
		</g>
	</g>
</g>
</svg>
